<?xml version="1.0" encoding="UTF-8"?>
<!DOCTYPE svg PUBLIC "-//W3C//DTD SVG 1.1//EN" "http://www.w3.org/Graphics/SVG/1.1/DTD/svg11.dtd">
<!-- Creator: CorelDRAW -->
<svg xmlns="http://www.w3.org/2000/svg" xml:space="preserve" width="194.518mm" height="194.517mm" version="1.1" style="shape-rendering:geometricPrecision; text-rendering:geometricPrecision; image-rendering:optimizeQuality; fill-rule:evenodd; clip-rule:evenodd"
viewBox="0 0 19451.76 19451.74"
 xmlns:xlink="http://www.w3.org/1999/xlink"
 xmlns:xodm="http://www.corel.com/coreldraw/odm/2003">
 <defs>
  <style type="text/css">
   <![CDATA[
    .fil0 {fill:#195D46}
   ]]>
  </style>
 </defs>
 <g id="Camada_x0020_1">
  <metadata id="CorelCorpID_0Corel-Layer"/>
  <g id="_2633454365104">
   <path class="fil0" d="M6918.9 4862.94c935.63,-1620.98 1871.29,-3241.95 2806.96,-4862.93 1488.7,2578.53 1702.91,2950.21 2806.99,4862.93l-0.04 0c-935.63,1620.98 -1871.29,3241.96 -2806.95,4862.93 -1488.71,-2578.53 -1702.92,-2950.21 -2807,-4862.93l0.04 0zm946.19 0c620.27,-1074.61 1240.54,-2149.21 1860.81,-3223.78 620.31,1074.57 1240.49,2149.17 1860.76,3223.78 -620.27,1074.61 -1240.58,2149.17 -1860.85,3223.78 -620.27,-1074.56 -1240.49,-2149.17 -1860.72,-3223.78z"/>
   <path class="fil0" d="M14588.81 6918.91c1620.98,935.62 3241.96,1871.28 4862.94,2806.94 -2578.54,1488.71 -2950.21,1702.92 -4862.94,2806.99l0 -0.04c-1620.98,-935.62 -3241.96,-1871.28 -4862.94,-2806.95 2578.54,-1488.7 2950.22,-1702.91 4862.94,-2806.99l0 0.05zm0 946.18c1074.61,620.27 2149.22,1240.54 3223.79,1860.81 -1074.57,620.31 -2149.18,1240.49 -3223.79,1860.76 -1074.61,-620.27 -2149.17,-1240.58 -3223.78,-1860.85 1074.56,-620.27 2149.17,-1240.49 3223.78,-1860.72z"/>
   <path class="fil0" d="M8811.27 4862.94c304.88,-528.19 609.75,-1056.35 914.63,-1584.54 304.87,528.15 609.7,1056.35 914.58,1584.54 -304.88,528.2 -609.79,1056.39 -914.67,1584.54 -304.83,-528.15 -609.7,-1056.34 -914.54,-1584.54z"/>
   <path class="fil0" d="M14588.81 8811.27c528.2,304.88 1056.35,609.75 1584.55,914.63 -528.16,304.87 -1056.35,609.7 -1584.55,914.58 -528.19,-304.88 -1056.39,-609.8 -1584.54,-914.67 528.15,-304.83 1056.35,-609.71 1584.54,-914.54z"/>
   <path class="fil0" d="M6918.9 14588.8c935.63,1620.98 1871.29,3241.96 2806.96,4862.94 1488.7,-2578.54 1702.91,-2950.21 2806.99,-4862.94l-0.04 0c-935.63,-1620.97 -1871.29,-3241.95 -2806.95,-4862.93 -1488.71,2578.54 -1702.92,2950.21 -2807,4862.93l0.04 0zm946.19 0c620.27,1074.61 1240.54,2149.22 1860.81,3223.78 620.31,-1074.56 1240.49,-2149.17 1860.76,-3223.78 -620.27,-1074.6 -1240.58,-2149.17 -1860.85,-3223.78 -620.27,1074.57 -1240.49,2149.18 -1860.72,3223.78z"/>
   <path class="fil0" d="M4862.94 6918.91c-1620.98,935.62 -3241.96,1871.28 -4862.94,2806.94 2578.54,1488.71 2950.21,1702.92 4862.94,2806.99l0 -0.04c1620.98,-935.62 3241.96,-1871.28 4862.94,-2806.95 -2578.54,-1488.7 -2950.22,-1702.91 -4862.94,-2806.99l0 0.05zm0 946.18c-1074.61,620.27 -2149.22,1240.54 -3223.79,1860.81 1074.57,620.31 2149.18,1240.49 3223.79,1860.76 1074.61,-620.27 2149.17,-1240.58 3223.78,-1860.85 -1074.56,-620.27 -2149.17,-1240.49 -3223.78,-1860.72z"/>
   <path class="fil0" d="M8811.27 14588.8c304.88,528.2 609.75,1056.35 914.63,1584.54 304.87,-528.15 609.7,-1056.34 914.58,-1584.54 -304.88,-528.19 -609.79,-1056.39 -914.67,-1584.54 -304.83,528.15 -609.7,1056.35 -914.54,1584.54z"/>
   <path class="fil0" d="M4862.94 8811.27c-528.2,304.88 -1056.35,609.75 -1584.55,914.63 528.16,304.87 1056.35,609.7 1584.55,914.58 528.19,-304.88 1056.39,-609.8 1584.54,-914.67 -528.15,-304.83 -1056.35,-609.71 -1584.54,-914.54z"/>
  </g>
 </g>
</svg>
