<?xml version="1.0" encoding="UTF-8"?>
<!DOCTYPE svg PUBLIC "-//W3C//DTD SVG 1.1//EN" "http://www.w3.org/Graphics/SVG/1.1/DTD/svg11.dtd">
<!-- Creator: CorelDRAW -->
<svg xmlns="http://www.w3.org/2000/svg" xml:space="preserve" width="183.56mm" height="44.0031mm" version="1.1" style="shape-rendering:geometricPrecision; text-rendering:geometricPrecision; image-rendering:optimizeQuality; fill-rule:evenodd; clip-rule:evenodd"
viewBox="0 0 18356 4400.31"
 xmlns:xlink="http://www.w3.org/1999/xlink"
 xmlns:xodm="http://www.corel.com/coreldraw/odm/2003">
 <defs>
  <style type="text/css">
   <![CDATA[
    .fil1 {fill:#1A1A1A}
    .fil0 {fill:#4D4D4D;fill-rule:nonzero}
    .fil2 {fill:#B60C0C}
   ]]>
  </style>
 </defs>
 <g id="Camada_x0020_1">
  <metadata id="CorelCorpID_0Corel-Layer"/>
  <g id="_2626180085168">
   <g>
    <path class="fil0" d="M8173.04 4400.31l127.73 0 -264.64 -631.27 -126.81 0 -264.64 631.27 127.73 0 49.61 -119.45 301.4 0 49.62 119.45zm-311.5 -213.18l111.17 -266.47 111.2 266.47 -222.37 0zm893.55 213.18l114.86 0 0 -421.76 207.66 385.01 208.6 -385.01 0 421.76 113.94 0 0 -631.27 -113.94 0 -208.6 385.01 -207.66 -385.01 -114.86 0 0 631.27zm1137.06 0l321.61 0c116.7,0 200.32,-70.75 200.32,-171.83 0,-68.91 -42.27,-126.81 -114.86,-161.73 56.05,-30.32 88.21,-75.34 88.21,-139.66 0,-91.89 -76.28,-158.05 -185.62,-158.05l-309.66 0 0 631.27zm113.94 -373.07l0 -158.95 167.23 0c56.99,0 97.41,33.06 97.41,79.93 0,45.95 -40.42,79.02 -97.41,79.02l-167.23 0zm0 273.83l0 -180.09 184.7 0c62.49,0 106.58,37.66 106.58,90.03 0,52.4 -44.09,90.06 -106.58,90.06l-184.7 0zm871.51 99.24l114.86 0 0 -631.27 -114.86 0 0 631.27zm1081.92 -526.52l0 -104.75 -475.06 0 0 631.27 475.06 0 0 -104.74 -360.2 0 0 -164.49 326.21 0 0 -104.75 -326.21 0 0 -152.54 360.2 0zm474.54 526.52l114.86 0 0 -443.82 332.63 443.82 114.86 0 0 -631.27 -114.86 0 0 443.83 -332.63 -443.83 -114.86 0 0 631.27zm1223.42 0l114.86 0 0 -526.52 201.25 0 0 -104.75 -518.26 0 0 104.75 202.15 0 0 526.52zm1183.92 0l127.73 0 -264.64 -631.27 -126.81 0 -264.64 631.27 127.73 0 49.61 -119.45 301.4 0 49.62 119.45zm-311.5 -213.18l111.17 -266.47 111.2 266.47 -222.37 0zm1008.42 108.44l0 -526.53 -114.87 0 0 631.27 439.24 0 0 -104.74 -324.37 0z"/>
    <g>
     <path class="fil1" d="M5462.28 2694.81l0 270.45 -310.72 0 0 -1282.72 776.71 0c279.2,0 506.05,227.13 506.05,506.26 0,109.92 -34.95,215.3 -100.86,303.29 -25.42,33.89 -55.08,64.46 -88.02,90.98l354.92 382.45 -423.97 0 -251.07 -270.71 -463.04 0zm0 -701.59l0 391.13 467.85 0c13.18,-0.13 26.9,-1.67 40.39,-4.63 88.4,-19.5 153.33,-100.38 153.33,-190.92 0,-107.78 -87.8,-195.58 -195.58,-195.58l-465.99 0z"/>
     <path class="fil1" d="M7186.51 1686.02c353.25,0 639.27,288.79 639.27,641.48 0,353.62 -287.84,641.5 -641.47,641.5 -353.75,0 -641.51,-287.78 -641.51,-641.5 0,-352.56 285.9,-641.48 639.06,-641.48l4.65 0zm-2.2 310.69c-182.37,0 -330.79,148.42 -330.79,330.79 0,182.36 148.42,330.78 330.79,330.78 182.37,0 330.79,-148.42 330.79,-330.78 0,-182.37 -148.42,-330.79 -330.79,-330.79z"/>
     <path class="fil1" d="M8808.53 2093.59c-128.95,-128.92 -338.91,-128.89 -467.83,0.03 -128.95,128.92 -128.82,338.84 0.07,467.82 128.85,128.98 338.84,128.86 467.76,-0.03l90.72 -90.76 219.52 219.68 -90.66 90.63c-120.52,120.55 -283.04,187.78 -453.48,187.78 -170.47,0 -333.02,-67.2 -453.7,-187.71 -120.99,-120.84 -187.81,-282.54 -187.81,-453.54 0,-171.05 66.79,-332.78 187.78,-453.73 250.1,-250.13 656.95,-249.97 907.58,0.37l89.47 91.11 -212 212.16 -93.96 -80.32 -3.46 -3.49z"/>
     <polygon class="fil1" points="10083.96,2327.46 10679.22,2968.75 10255.5,2968.75 9871.89,2555.79 9488.47,2968.75 9226.45,2968.75 9226.45,1686.02 9537.17,1686.02 9537.17,2459.75 9758.7,2220.91 9779.78,2198.39 10255.5,1686.02 10679.12,1686.02 "/>
     <polygon class="fil1" points="12280.72,1996.71 12280.72,2172.03 12739.54,2172.03 12739.54,2482.74 12280.72,2482.74 12280.72,2969 11970,2969 11970,1686.02 13042.46,1686.02 13042.46,1996.71 "/>
     <polygon class="fil1" points="14644.04,2658.28 15616.3,2658.28 15616.3,2968.72 14333.32,2969 14333.32,1686.02 14644.04,1686.02 "/>
     <polygon class="fil1" points="11098.32,1996.71 11098.32,2172.03 11557.15,2172.03 11557.15,2482.74 11098.32,2482.74 11098.32,2658.28 11861.51,2658.28 11861.51,2968.72 10787.6,2969 10787.6,1686.02 11861.51,1686.02 11861.51,1996.71 "/>
     <path class="fil1" d="M17217.92 2698.3l0 270.45 -310.72 0 0 -1282.73 776.72 0c279.19,0 506.04,227.13 506.04,506.27 0,109.91 -34.95,215.3 -100.85,303.29 -25.42,33.88 -55.09,64.46 -88.02,90.98l354.91 382.44 -423.97 0 -251.07 -270.7 -463.04 0zm0 -701.59l0 391.12 467.86 0c13.18,-0.12 26.89,-1.66 40.39,-4.62 88.4,-19.51 153.33,-100.39 153.33,-190.92 0,-107.78 -87.8,-195.58 -195.58,-195.58l-466 0z"/>
     <polygon class="fil1" points="13461.66,1996.71 13461.66,2172.03 13920.48,2172.03 13920.48,2482.74 13461.66,2482.74 13461.66,2658.28 14224.84,2658.28 14224.84,2968.72 13150.94,2969 13150.94,1686.02 14224.84,1686.02 14224.84,1996.71 "/>
     <polygon class="fil1" points="15130.27,2172.04 15616.3,2172.04 15616.3,2482.6 14819.55,2482.76 14819.55,1686.04 15130.27,1686.04 "/>
     <polygon class="fil1" points="16035.51,1996.71 16035.51,2172.03 16494.34,2172.03 16494.34,2482.74 16035.51,2482.74 16035.51,2658.28 16798.7,2658.28 16798.7,2968.72 15724.8,2969 15724.8,1686.02 16798.7,1686.02 16798.7,1996.71 "/>
    </g>
    <g>
     <polygon class="fil2" points="1174,3239.38 503.76,4400.26 4410.45,4400.24 2897.21,1778.65 2641.27,2221.96 3641.42,3954.28 1274.5,3954.28 1687.25,3239.38 "/>
     <path class="fil2" d="M1870.55 0l-1870.55 3239.88 514.12 -0.5 842.33 -1458.96 915.65 1585.97 256.62 -444.49 -403.26 -698.47 514.3 -890.8 -769.21 -1332.63zm256.6 1331.49l-255.76 -442.99 -258.32 447.43 255.76 443 258.32 -447.44z"/>
    </g>
   </g>
   <path class="fil0" d="M8173.04 4400.31l127.73 0 -264.64 -631.27 -126.81 0 -264.64 631.27 127.73 0 49.61 -119.45 301.4 0 49.62 119.45zm-311.5 -213.18l111.17 -266.47 111.2 266.47 -222.37 0zm893.55 213.18l114.86 0 0 -421.76 207.66 385.01 208.6 -385.01 0 421.76 113.94 0 0 -631.27 -113.94 0 -208.6 385.01 -207.66 -385.01 -114.86 0 0 631.27zm1137.06 0l321.61 0c116.7,0 200.32,-70.75 200.32,-171.83 0,-68.91 -42.27,-126.81 -114.86,-161.73 56.05,-30.32 88.21,-75.34 88.21,-139.66 0,-91.89 -76.28,-158.05 -185.62,-158.05l-309.66 0 0 631.27zm113.94 -373.07l0 -158.95 167.23 0c56.99,0 97.41,33.06 97.41,79.93 0,45.95 -40.42,79.02 -97.41,79.02l-167.23 0zm0 273.83l0 -180.09 184.7 0c62.49,0 106.58,37.66 106.58,90.03 0,52.4 -44.09,90.06 -106.58,90.06l-184.7 0zm871.51 99.24l114.86 0 0 -631.27 -114.86 0 0 631.27zm1081.92 -526.52l0 -104.75 -475.06 0 0 631.27 475.06 0 0 -104.74 -360.2 0 0 -164.49 326.21 0 0 -104.75 -326.21 0 0 -152.54 360.2 0zm474.54 526.52l114.86 0 0 -443.82 332.63 443.82 114.86 0 0 -631.27 -114.86 0 0 443.83 -332.63 -443.83 -114.86 0 0 631.27zm1223.42 0l114.86 0 0 -526.52 201.25 0 0 -104.75 -518.26 0 0 104.75 202.15 0 0 526.52zm1183.92 0l127.73 0 -264.64 -631.27 -126.81 0 -264.64 631.27 127.73 0 49.61 -119.45 301.4 0 49.62 119.45zm-311.5 -213.18l111.17 -266.47 111.2 266.47 -222.37 0zm1008.42 108.44l0 -526.53 -114.87 0 0 631.27 439.24 0 0 -104.74 -324.37 0z"/>
   <g>
    <path class="fil1" d="M5462.28 2694.81l0 270.45 -310.72 0 0 -1282.72 776.71 0c279.2,0 506.05,227.13 506.05,506.26 0,109.92 -34.95,215.3 -100.86,303.29 -25.42,33.89 -55.08,64.46 -88.02,90.98l354.92 382.45 -423.97 0 -251.07 -270.71 -463.04 0zm0 -701.59l0 391.13 467.85 0c13.18,-0.13 26.9,-1.67 40.39,-4.63 88.4,-19.5 153.33,-100.38 153.33,-190.92 0,-107.78 -87.8,-195.58 -195.58,-195.58l-465.99 0z"/>
    <path class="fil1" d="M7186.51 1686.02c353.25,0 639.27,288.79 639.27,641.48 0,353.62 -287.84,641.5 -641.47,641.5 -353.75,0 -641.51,-287.78 -641.51,-641.5 0,-352.56 285.9,-641.48 639.06,-641.48l4.65 0zm-2.2 310.69c-182.37,0 -330.79,148.42 -330.79,330.79 0,182.36 148.42,330.78 330.79,330.78 182.37,0 330.79,-148.42 330.79,-330.78 0,-182.37 -148.42,-330.79 -330.79,-330.79z"/>
    <path class="fil1" d="M8808.53 2093.59c-128.95,-128.92 -338.91,-128.89 -467.83,0.03 -128.95,128.92 -128.82,338.84 0.07,467.82 128.85,128.98 338.84,128.86 467.76,-0.03l90.72 -90.76 219.52 219.68 -90.66 90.63c-120.52,120.55 -283.04,187.78 -453.48,187.78 -170.47,0 -333.02,-67.2 -453.7,-187.71 -120.99,-120.84 -187.81,-282.54 -187.81,-453.54 0,-171.05 66.79,-332.78 187.78,-453.73 250.1,-250.13 656.95,-249.97 907.58,0.37l89.47 91.11 -212 212.16 -93.96 -80.32 -3.46 -3.49z"/>
    <polygon class="fil1" points="10083.96,2327.46 10679.22,2968.75 10255.5,2968.75 9871.89,2555.79 9488.47,2968.75 9226.45,2968.75 9226.45,1686.02 9537.17,1686.02 9537.17,2459.75 9758.7,2220.91 9779.78,2198.39 10255.5,1686.02 10679.12,1686.02 "/>
    <polygon class="fil1" points="12280.72,1996.71 12280.72,2172.03 12739.54,2172.03 12739.54,2482.74 12280.72,2482.74 12280.72,2969 11970,2969 11970,1686.02 13042.46,1686.02 13042.46,1996.71 "/>
    <polygon class="fil1" points="14644.04,2658.28 15616.3,2658.28 15616.3,2968.72 14333.32,2969 14333.32,1686.02 14644.04,1686.02 "/>
    <polygon class="fil1" points="11098.32,1996.71 11098.32,2172.03 11557.15,2172.03 11557.15,2482.74 11098.32,2482.74 11098.32,2658.28 11861.51,2658.28 11861.51,2968.72 10787.6,2969 10787.6,1686.02 11861.51,1686.02 11861.51,1996.71 "/>
    <path class="fil1" d="M17217.92 2698.3l0 270.45 -310.72 0 0 -1282.73 776.72 0c279.19,0 506.04,227.13 506.04,506.27 0,109.91 -34.95,215.3 -100.85,303.29 -25.42,33.88 -55.09,64.46 -88.02,90.98l354.91 382.44 -423.97 0 -251.07 -270.7 -463.04 0zm0 -701.59l0 391.12 467.86 0c13.18,-0.12 26.89,-1.66 40.39,-4.62 88.4,-19.51 153.33,-100.39 153.33,-190.92 0,-107.78 -87.8,-195.58 -195.58,-195.58l-466 0z"/>
    <polygon class="fil1" points="13461.66,1996.71 13461.66,2172.03 13920.48,2172.03 13920.48,2482.74 13461.66,2482.74 13461.66,2658.28 14224.84,2658.28 14224.84,2968.72 13150.94,2969 13150.94,1686.02 14224.84,1686.02 14224.84,1996.71 "/>
    <polygon class="fil1" points="15130.27,2172.04 15616.3,2172.04 15616.3,2482.6 14819.55,2482.76 14819.55,1686.04 15130.27,1686.04 "/>
    <polygon class="fil1" points="16035.51,1996.71 16035.51,2172.03 16494.34,2172.03 16494.34,2482.74 16035.51,2482.74 16035.51,2658.28 16798.7,2658.28 16798.7,2968.72 15724.8,2969 15724.8,1686.02 16798.7,1686.02 16798.7,1996.71 "/>
   </g>
   <g>
    <polygon class="fil2" points="1174,3239.38 503.76,4400.26 4410.45,4400.24 2897.21,1778.65 2641.27,2221.96 3641.42,3954.28 1274.5,3954.28 1687.25,3239.38 "/>
    <path class="fil2" d="M1870.55 0l-1870.55 3239.88 514.12 -0.5 842.33 -1458.96 915.65 1585.97 256.62 -444.49 -403.26 -698.47 514.3 -890.8 -769.21 -1332.63zm256.6 1331.49l-255.76 -442.99 -258.32 447.43 255.76 443 258.32 -447.44z"/>
   </g>
  </g>
 </g>
</svg>
